<svg id="a1bc20da-02dc-4a7f-8331-d21705e9188e" data-name="Layer 1" xmlns="http://www.w3.org/2000/svg" viewBox="0 0 234.58 137.93">
  <defs>
    <style>
      .f9b4fd55-5be9-496f-9f2d-52c7abd71c65 {
        fill: #f2e9e1;
      }

      .bee4353c-d33f-40ae-85dc-7c0001cd2439 {
        fill: #db9a8f;
      }
    </style>
  </defs>
  <path class="f9b4fd55-5be9-496f-9f2d-52c7abd71c65" d="M147.75,3.77C145.59,3,146.4.31,148.46.19a104.21,104.21,0,0,1,38.71,5.16c10.53,3.32,21,8.19,28.59,16.44,9.16,9.72,16.3,21.85,18.34,35.2.89,7.16.75,14.7-2.15,21.42-5.06,12.52-17,22.25-30.6,23.58-4.88,8.32-10.11,16.52-13.35,25.66-1.28,3.29-2.19,6.89-4.63,9.56-1.73,1.31-3.93.55-5.81.06-16.84-4.69-33.57-10.68-51.19-11.61-2.81-.2-5.66.15-8.44-.37-1.69-.52-1.17-3.41.68-3.24a85.69,85.69,0,0,1,25.79-2.93c10.66.88,21.15,3.12,31.64,5.11,4.07-8,8.12-16,12.94-23.65-6.26-1.83-12.75-3.76-17.92-7.89-6.61-5.81-9.24-14.53-12-22.57-.69-2.57-1.95-6.05.5-8.07,2.14-.68,4.23.93,5.46,2.55,2.74,3.77,4.13,8.32,6.75,12.18,3.64,5.93,9.06,11.33,16.17,12.62,8.6,1.62,18.69-.29,24.61-7.2,4-5.13,5.39-11.76,6-18.1A43.32,43.32,0,0,0,203,27.52C187.49,14.13,166.82,9.73,147.75,3.77Z"/>
  <path class="bee4353c-d33f-40ae-85dc-7c0001cd2439" d="M41,9.31a132,132,0,0,1,68.22-4c12.53,3.26,25.54,8.78,33.11,19.81.89,1.57,3.2,4.87.09,5.39-2.75-1.27-5-3.32-7.62-4.84a66.48,66.48,0,0,0-22.41-8,135.16,135.16,0,0,0-36.6-.89c-11.69,1.8-23.5,4.13-34.07,9.68C32.82,30.55,24.89,37.21,20.29,46c-4.63,9.17-4.55,20.14-1.54,29.79,2.59,8.14,8.69,15.32,17,17.91,7.73,2.25,16.14.41,23.08-3.36C70.56,85.15,78.64,74.71,89,67.55c4.16-3,8,1.45,10.9,4,8.57,7.9,19.25,15.43,31.46,14.75,5.41,0,10.05-3,14.51-5.71,1.52-1.21,4.27-1,4.15,1.47-2.88,7.46-11.18,10.56-18.37,12.22-14.76,3.35-30.53-2.93-40-14.47-7.44,6.8-14.55,14.44-23.82,18.73-1.66.76-.88,2.9-.85,4.29,1,5.77,1.14,11.67,2.42,17.39,7.9-2.06,15.8-4.41,24-5,8.54-.61,17.16-1.43,25.72-.67.28,1.41,0,3.15-1.78,3.21a164.58,164.58,0,0,0-41.62,12.43c-4.57,1.8-8.82,4.45-13.61,5.67-3.35.68-5.43-3-5.8-5.84-1.32-8.76,1.29-17.58.11-26.37-13.25,3-28.3,1.26-39.08-7.53C7.81,88.52,2.61,76.76.6,65-.4,56-.59,46.51,3.69,38.33,11,23.54,26,14.66,41,9.31Z"/>
</svg>
